<svg xmlns="http://www.w3.org/2000/svg" xmlns:xlink="http://www.w3.org/1999/xlink" version="1.1" width="256" height="256" viewBox="0 0 256 256" xml:space="preserve">

<defs>
</defs>
<g style="stroke: none; stroke-width: 0; stroke-dasharray: none; stroke-linecap: butt; stroke-linejoin: miter; stroke-miterlimit: 10; fill: rgb(255,255,255); fill-rule: nonzero; opacity: 1;" transform="translate(0 0) scale(2.81 2.81)" >
	<path d="M 71.326 90 H 18.674 C 8.361 90 0 81.639 0 71.326 V 18.674 C 0 8.361 8.361 0 18.674 0 h 52.652 C 81.639 0 90 8.361 90 18.674 v 52.652 C 90 81.639 81.639 90 71.326 90 z" style="stroke: none; stroke-width: 1; stroke-dasharray: none; stroke-linecap: butt; stroke-linejoin: miter; stroke-miterlimit: 10; fill: rgb(255,255,255); fill-rule: nonzero; opacity: 1;" transform=" matrix(1 0 0 1 0 0) " stroke-linecap="round" />
</g>
<g style="stroke: none; stroke-width: 0; stroke-dasharray: none; stroke-linecap: butt; stroke-linejoin: miter; stroke-miterlimit: 10; fill: none; fill-rule: nonzero; opacity: 1;" transform="translate(46.17984832069338 46.17984832069338) scale(1.82 1.82)" >
	<path d="M 45 0 C 20.187 0 0 20.187 0 45 c 0 24.813 20.187 45 45 45 c 24.813 0 45 -20.187 45 -45 C 90 20.187 69.813 0 45 0 z M 65.454 50 H 50 v 15.454 c 0 2.762 -2.238 5 -5 5 c -2.761 0 -5 -2.238 -5 -5 V 50 H 24.545 c -2.761 0 -5 -2.238 -5 -5 c 0 -2.761 2.239 -5 5 -5 H 40 V 24.545 c 0 -2.761 2.239 -5 5 -5 c 2.762 0 5 2.239 5 5 V 40 h 15.454 c 2.762 0 5 2.239 5 5 C 70.454 47.762 68.216 50 65.454 50 z" style="stroke: none; stroke-width: 1; stroke-dasharray: none; stroke-linecap: butt; stroke-linejoin: miter; stroke-miterlimit: 10; fill: rgb(94,111,211); fill-rule: nonzero; opacity: 1;" transform=" matrix(1 0 0 1 0 0) " stroke-linecap="round" />
</g>
</svg>