<svg xmlns="http://www.w3.org/2000/svg" xmlns:xlink="http://www.w3.org/1999/xlink" version="1.1" width="256" height="256" viewBox="0 0 256 256" xml:space="preserve">

<defs>
</defs>
<g style="stroke: none; stroke-width: 0; stroke-dasharray: none; stroke-linecap: butt; stroke-linejoin: miter; stroke-miterlimit: 10; fill: none; fill-rule: nonzero; opacity: 1;" transform="translate(0 0) scale(2.81 2.81)" >
	<path d="M 69.681 90 H 20.319 C 9.115 90 0 80.885 0 69.681 V 20.319 C 0 9.115 9.115 0 20.319 0 h 49.362 C 80.885 0 90 9.115 90 20.319 v 49.362 C 90 80.885 80.885 90 69.681 90 z M 20.319 5.625 c -8.102 0 -14.694 6.592 -14.694 14.694 v 49.362 c 0 8.102 6.592 14.694 14.694 14.694 h 49.362 c 8.102 0 14.694 -6.592 14.694 -14.694 V 20.319 c 0 -8.102 -6.592 -14.694 -14.694 -14.694 H 20.319 z" style="stroke: none; stroke-width: 1; stroke-dasharray: none; stroke-linecap: butt; stroke-linejoin: miter; stroke-miterlimit: 10; fill: rgb(0,0,0); fill-rule: nonzero; opacity: 1;" transform=" matrix(1 0 0 1 0 0) " stroke-linecap="round" />
</g>
<g style="stroke: none; stroke-width: 0; stroke-dasharray: none; stroke-linecap: butt; stroke-linejoin: miter; stroke-miterlimit: 10; fill: none; fill-rule: nonzero; opacity: 1;" transform="translate(41.722334004024134 41.722334004024134) scale(1.92 1.92)" >
	<path d="M 82.612 16.197 H 7.388 C 3.314 16.197 0 19.511 0 23.584 v 42.831 c 0 4.074 3.314 7.388 7.388 7.388 h 75.225 c 4.074 0 7.388 -3.314 7.388 -7.388 V 23.584 C 90 19.511 86.686 16.197 82.612 16.197 z M 7.388 19.164 h 75.225 c 2.438 0 4.421 1.983 4.421 4.421 V 56.67 H 2.967 V 23.584 C 2.967 21.146 4.95 19.164 7.388 19.164 z M 82.612 70.836 H 7.388 c -2.438 0 -4.421 -1.983 -4.421 -4.421 v -6.778 h 84.066 v 6.778 C 87.033 68.853 85.05 70.836 82.612 70.836 z" style="stroke: none; stroke-width: 1; stroke-dasharray: none; stroke-linecap: butt; stroke-linejoin: miter; stroke-miterlimit: 10; fill: rgb(94,111,211); fill-rule: nonzero; opacity: 1;" transform=" matrix(1 0 0 1 0 0) " stroke-linecap="round" />
	<path d="M 39.443 49.039 c -3.298 0 -6.365 -1.382 -8.533 -3.777 c -2.168 2.395 -5.235 3.777 -8.533 3.777 c -6.367 0 -11.548 -5.18 -11.548 -11.548 c 0 -6.367 5.18 -11.547 11.548 -11.547 c 3.298 0 6.364 1.382 8.533 3.777 c 2.168 -2.395 5.234 -3.777 8.533 -3.777 c 6.367 0 11.547 5.18 11.547 11.547 C 50.99 43.859 45.81 49.039 39.443 49.039 z M 30.91 40.009 l 1.258 2.015 c 1.583 2.535 4.302 4.048 7.274 4.048 c 4.731 0 8.58 -3.849 8.58 -8.581 c 0 -4.731 -3.849 -8.58 -8.58 -8.58 c -2.972 0 -5.691 1.513 -7.274 4.048 l -1.258 2.015 l -1.258 -2.014 c -1.583 -2.535 -4.303 -4.048 -7.275 -4.048 c -4.731 0 -8.58 3.849 -8.58 8.58 c 0 4.732 3.849 8.581 8.58 8.581 c 2.971 0 5.691 -1.513 7.275 -4.049 L 30.91 40.009 z" style="stroke: none; stroke-width: 1; stroke-dasharray: none; stroke-linecap: butt; stroke-linejoin: miter; stroke-miterlimit: 10; fill: rgb(94,111,211); fill-rule: nonzero; opacity: 1;" transform=" matrix(1 0 0 1 0 0) " stroke-linecap="round" />
</g>
</svg>