<svg xmlns="http://www.w3.org/2000/svg" xmlns:xlink="http://www.w3.org/1999/xlink" version="1.1" width="256" height="256" viewBox="0 0 256 256" xml:space="preserve">

<defs>
</defs>
<g style="stroke: none; stroke-width: 0; stroke-dasharray: none; stroke-linecap: butt; stroke-linejoin: miter; stroke-miterlimit: 10; fill: none; fill-rule: nonzero; opacity: 1;" transform="translate(0 0) scale(2.81 2.81)" >
	<path d="M 69.681 90 H 20.319 C 9.115 90 0 80.885 0 69.681 V 20.319 C 0 9.115 9.115 0 20.319 0 h 49.362 C 80.885 0 90 9.115 90 20.319 v 49.362 C 90 80.885 80.885 90 69.681 90 z M 20.319 5.625 c -8.102 0 -14.694 6.592 -14.694 14.694 v 49.362 c 0 8.102 6.592 14.694 14.694 14.694 h 49.362 c 8.102 0 14.694 -6.592 14.694 -14.694 V 20.319 c 0 -8.102 -6.592 -14.694 -14.694 -14.694 H 20.319 z" style="stroke: none; stroke-width: 1; stroke-dasharray: none; stroke-linecap: butt; stroke-linejoin: miter; stroke-miterlimit: 10; fill: rgb(0,0,0); fill-rule: nonzero; opacity: 1;" transform=" matrix(1 0 0 1 0 0) " stroke-linecap="round" />
</g>
<g style="stroke: none; stroke-width: 0; stroke-dasharray: none; stroke-linecap: butt; stroke-linejoin: miter; stroke-miterlimit: 10; fill: none; fill-rule: nonzero; opacity: 1;" transform="translate(37.2648196873549 37.2648196873549) scale(2.02 2.02)" >
	<path d="M 53.593 33.408 c -0.256 0 -0.512 -0.098 -0.707 -0.293 l -5.136 -5.136 c -0.391 -0.391 -0.391 -1.023 0 -1.414 l 5.136 -5.136 c 0.391 -0.391 1.023 -0.391 1.414 0 s 0.391 1.023 0 1.414 l -4.429 4.429 l 4.429 4.429 c 0.391 0.391 0.391 1.023 0 1.414 C 54.104 33.311 53.849 33.408 53.593 33.408 z" style="stroke: none; stroke-width: 1; stroke-dasharray: none; stroke-linecap: butt; stroke-linejoin: miter; stroke-miterlimit: 10; fill: rgb(94,111,211); fill-rule: nonzero; opacity: 1;" transform=" matrix(1 0 0 1 0 0) " stroke-linecap="round" />
	<path d="M 89 68.863 H 1 c -0.552 0 -1 -0.447 -1 -1 V 27.272 c 0 -0.552 0.448 -1 1 -1 h 38.499 c 0.552 0 1 0.448 1 1 s -0.448 1 -1 1 H 2 v 38.591 h 86 V 28.272 H 48.457 c -0.553 0 -1 -0.448 -1 -1 s 0.447 -1 1 -1 H 89 c 0.553 0 1 0.448 1 1 v 40.591 C 90 68.416 89.553 68.863 89 68.863 z" style="stroke: none; stroke-width: 1; stroke-dasharray: none; stroke-linecap: butt; stroke-linejoin: miter; stroke-miterlimit: 10; fill: rgb(94,111,211); fill-rule: nonzero; opacity: 1;" transform=" matrix(1 0 0 1 0 0) " stroke-linecap="round" />
	<path d="M 45 59.068 c -6.341 0 -11.5 -5.159 -11.5 -11.5 c 0 -6.341 5.159 -11.5 11.5 -11.5 c 6.341 0 11.5 5.159 11.5 11.5 C 56.5 53.909 51.341 59.068 45 59.068 z M 45 38.068 c -5.238 0 -9.5 4.262 -9.5 9.5 c 0 5.238 4.262 9.5 9.5 9.5 s 9.5 -4.262 9.5 -9.5 C 54.5 42.33 50.238 38.068 45 38.068 z" style="stroke: none; stroke-width: 1; stroke-dasharray: none; stroke-linecap: butt; stroke-linejoin: miter; stroke-miterlimit: 10; fill: rgb(94,111,211); fill-rule: nonzero; opacity: 1;" transform=" matrix(1 0 0 1 0 0) " stroke-linecap="round" />
	<path d="M 31.589 59.068 H 16.797 c -0.552 0 -1 -0.447 -1 -1 c 0.001 -2.82 -2.268 -5.089 -5.057 -5.089 c -0.552 0 -1 -0.447 -1 -1 v -8.823 c 0 -0.552 0.448 -1 1 -1 c 2.775 0 5.043 -2.258 5.057 -5.033 c 0.003 -0.55 0.45 -0.995 1 -0.995 h 14.792 c 0.552 0 1 0.448 1 1 s -0.448 1 -1 1 H 17.722 c -0.454 3.076 -2.905 5.517 -5.982 5.957 v 6.964 c 3.104 0.442 5.564 2.911 5.992 6.019 h 13.857 c 0.552 0 1 0.447 1 1 S 32.142 59.068 31.589 59.068 z" style="stroke: none; stroke-width: 1; stroke-dasharray: none; stroke-linecap: butt; stroke-linejoin: miter; stroke-miterlimit: 10; fill: rgb(94,111,211); fill-rule: nonzero; opacity: 1;" transform=" matrix(1 0 0 1 0 0) " stroke-linecap="round" />
	<path d="M 73.202 59.068 H 58.411 c -0.553 0 -1 -0.447 -1 -1 s 0.447 -1 1 -1 h 13.861 c 0.44 -3.094 2.895 -5.547 5.987 -5.988 v -6.964 c -3.093 -0.44 -5.547 -2.894 -5.987 -5.987 H 58.411 c -0.553 0 -1 -0.448 -1 -1 s 0.447 -1 1 -1 h 14.791 c 0.553 0 1 0.448 1 1 c 0 2.789 2.269 5.058 5.058 5.058 c 0.553 0 1 0.448 1 1 v 8.823 c 0 0.553 -0.447 1 -1 1 c -2.789 0 -5.058 2.27 -5.058 5.059 C 74.202 58.621 73.755 59.068 73.202 59.068 z" style="stroke: none; stroke-width: 1; stroke-dasharray: none; stroke-linecap: butt; stroke-linejoin: miter; stroke-miterlimit: 10; fill: rgb(94,111,211); fill-rule: nonzero; opacity: 1;" transform=" matrix(1 0 0 1 0 0) " stroke-linecap="round" />
</g>
</svg>