<svg xmlns="http://www.w3.org/2000/svg" xmlns:xlink="http://www.w3.org/1999/xlink" version="1.1" width="256" height="256" viewBox="0 0 256 256" xml:space="preserve">

<defs>
</defs>
<g style="stroke: none; stroke-width: 0; stroke-dasharray: none; stroke-linecap: butt; stroke-linejoin: miter; stroke-miterlimit: 10; fill: none; fill-rule: nonzero; opacity: 1;" transform="translate(0 0) scale(2.81 2.81)" >
	<path d="M 69.681 90 H 20.319 C 9.115 90 0 80.885 0 69.681 V 20.319 C 0 9.115 9.115 0 20.319 0 h 49.362 C 80.885 0 90 9.115 90 20.319 v 49.362 C 90 80.885 80.885 90 69.681 90 z M 20.319 5.625 c -8.102 0 -14.694 6.592 -14.694 14.694 v 49.362 c 0 8.102 6.592 14.694 14.694 14.694 h 49.362 c 8.102 0 14.694 -6.592 14.694 -14.694 V 20.319 c 0 -8.102 -6.592 -14.694 -14.694 -14.694 H 20.319 z" style="stroke: none; stroke-width: 1; stroke-dasharray: none; stroke-linecap: butt; stroke-linejoin: miter; stroke-miterlimit: 10; fill: rgb(0,0,0); fill-rule: nonzero; opacity: 1;" transform=" matrix(1 0 0 1 0 0) " stroke-linecap="round" />
</g>
<g style="stroke: none; stroke-width: 0; stroke-dasharray: none; stroke-linecap: butt; stroke-linejoin: miter; stroke-miterlimit: 10; fill: none; fill-rule: nonzero; opacity: 1;" transform="translate(41.722334004024134 41.722334004024134) scale(1.92 1.92)" >
	<path d="M 34.988 89.999 c -1.028 0 -2.037 -0.201 -2.999 -0.599 l -9.185 -3.805 c -3.995 -1.657 -5.897 -6.254 -4.244 -10.246 c 0.666 -1.607 -0.121 -2.735 -0.65 -3.264 c -0.425 -0.426 -1.593 -1.343 -3.265 -0.649 c -1.935 0.801 -4.065 0.802 -6 -0.001 c -1.935 -0.801 -3.442 -2.308 -4.243 -4.242 L 0.6 58.01 c -1.655 -3.992 0.248 -8.587 4.241 -10.243 C 6.512 47.075 6.692 45.602 6.692 45 c 0 -0.602 -0.18 -2.077 -1.848 -2.768 c -1.935 -0.801 -3.442 -2.308 -4.244 -4.244 c -0.802 -1.935 -0.802 -4.066 0 -6.001 l 3.803 -9.182 c 0.8 -1.934 2.307 -3.441 4.244 -4.243 c 1.935 -0.801 4.067 -0.8 6.001 0 c 1.61 0.67 2.735 -0.119 3.263 -0.648 c 0.529 -0.53 1.317 -1.657 0.65 -3.265 c -0.802 -1.935 -0.802 -4.066 0 -6.001 c 0.801 -1.935 2.309 -3.442 4.245 -4.244 l 9.18 -3.803 c 1.936 -0.803 4.068 -0.802 6.002 0 c 1.935 0.801 3.442 2.309 4.244 4.245 C 42.898 6.453 44.251 6.693 45 6.693 c 0.602 0 2.076 -0.18 2.767 -1.847 c 1.658 -3.993 6.253 -5.896 10.243 -4.244 l 9.184 3.805 c 1.935 0.801 3.441 2.308 4.242 4.244 c 0.802 1.933 0.803 4.063 0.001 5.999 c -0.691 1.67 0.224 2.839 0.649 3.264 c 0.426 0.428 1.595 1.34 3.264 0.65 c 3.988 -1.653 8.588 0.246 10.245 4.24 l 3.804 9.185 c 0.803 1.935 0.802 4.067 0 6.001 c -0.801 1.934 -2.309 3.441 -4.244 4.242 c -1.669 0.692 -1.848 2.164 -1.847 2.766 c 0 0.601 0.178 2.062 1.819 2.757 l 0.031 0.013 c 3.992 1.655 5.894 6.249 4.241 10.242 l -3.804 9.183 c -1.655 3.989 -6.249 5.89 -10.242 4.244 c -1.609 -0.668 -2.737 0.12 -3.267 0.648 c -0.427 0.426 -1.342 1.595 -0.65 3.264 c 1.653 3.992 -0.248 8.588 -4.239 10.245 l -9.186 3.804 c -3.997 1.651 -8.589 -0.251 -10.243 -4.239 c -0.667 -1.611 -2.02 -1.852 -2.768 -1.852 s -2.101 0.24 -2.768 1.849 c -0.802 1.935 -2.309 3.441 -4.244 4.242 C 37.028 89.797 36.018 89.999 34.988 89.999 z M 15.826 67.185 c 2.046 0 3.789 0.947 4.915 2.073 c 1.597 1.599 2.833 4.44 1.515 7.623 c -0.81 1.956 0.123 4.208 2.08 5.019 l 9.181 3.804 c 0.948 0.391 1.994 0.392 2.94 -0.001 c 0.949 -0.393 1.687 -1.13 2.08 -2.078 c 1.319 -3.184 4.203 -4.317 6.463 -4.317 c 2.259 0 5.144 1.135 6.463 4.319 c 0.811 1.953 3.061 2.884 5.018 2.075 l 9.183 -3.803 c 1.954 -0.812 2.886 -3.062 2.076 -5.018 c -1.319 -3.186 -0.081 -6.028 1.519 -7.624 c 1.598 -1.597 4.436 -2.835 7.624 -1.516 c 1.957 0.81 4.208 -0.125 5.017 -2.08 l 3.804 -9.182 c 0.805 -1.942 -0.11 -4.177 -2.041 -5 l -0.039 -0.017 c -3.183 -1.318 -4.316 -4.202 -4.316 -6.462 c -0.003 -2.258 1.13 -5.143 4.316 -6.463 c 0.948 -0.393 1.686 -1.131 2.079 -2.078 c 0.393 -0.948 0.393 -1.992 0 -2.939 l -3.804 -9.184 c -0.812 -1.955 -3.062 -2.888 -5.018 -2.076 c -3.184 1.322 -6.028 0.082 -7.624 -1.518 c -1.598 -1.596 -2.835 -4.437 -1.516 -7.623 c 0.393 -0.947 0.392 -1.991 -0.001 -2.937 c -0.393 -0.949 -1.13 -1.687 -2.077 -2.079 l -9.184 -3.805 c -1.952 -0.808 -4.205 0.124 -5.017 2.081 C 50.142 9.56 47.259 10.693 45 10.693 c -2.26 0 -5.145 -1.134 -6.463 -4.317 c -0.393 -0.949 -1.131 -1.687 -2.079 -2.08 c -0.948 -0.393 -1.993 -0.393 -2.941 0 L 24.337 8.1 c -0.949 0.393 -1.687 1.131 -2.08 2.079 c -0.393 0.948 -0.393 1.992 0 2.939 c 1.319 3.182 0.082 6.024 -1.515 7.623 c -1.597 1.599 -4.438 2.837 -7.623 1.518 c -0.948 -0.392 -1.992 -0.392 -2.941 0 c -0.947 0.393 -1.686 1.13 -2.077 2.077 l -3.804 9.182 c -0.393 0.948 -0.393 1.993 0 2.941 c 0.393 0.948 1.131 1.686 2.079 2.079 c 3.183 1.318 4.317 4.203 4.317 6.463 s -1.135 5.143 -4.32 6.463 c -1.955 0.811 -2.887 3.061 -2.077 5.016 l 3.803 9.183 c 0.393 0.947 1.131 1.686 2.079 2.078 c 0.949 0.393 1.992 0.393 2.94 0 C 14.057 67.352 14.969 67.185 15.826 67.185 z" style="stroke: none; stroke-width: 1; stroke-dasharray: none; stroke-linecap: butt; stroke-linejoin: miter; stroke-miterlimit: 10; fill: rgb(94,111,211); fill-rule: nonzero; opacity: 1;" transform=" matrix(1 0 0 1 0 0) " stroke-linecap="round" />
	<path d="M 45 73.874 c -15.921 0 -28.874 -12.953 -28.874 -28.874 S 29.079 16.126 45 16.126 S 73.874 29.079 73.874 45 S 60.921 73.874 45 73.874 z M 45 20.126 c -13.716 0 -24.874 11.158 -24.874 24.874 c 0 13.715 11.158 24.874 24.874 24.874 c 13.715 0 24.874 -11.159 24.874 -24.874 C 69.874 31.284 58.715 20.126 45 20.126 z" style="stroke: none; stroke-width: 1; stroke-dasharray: none; stroke-linecap: butt; stroke-linejoin: miter; stroke-miterlimit: 10; fill: rgb(94,111,211); fill-rule: nonzero; opacity: 1;" transform=" matrix(1 0 0 1 0 0) " stroke-linecap="round" />
	<path d="M 30.663 69.727 c -0.369 0 -0.739 -0.102 -1.068 -0.31 c -3.631 -2.295 -6.76 -5.43 -9.048 -9.066 c -0.497 -0.791 -0.381 -1.819 0.279 -2.479 L 31.01 47.687 c -1.095 -4.931 0.378 -10.08 3.986 -13.688 c 4.034 -4.034 10.119 -5.389 15.503 -3.453 c 0.645 0.231 1.125 0.777 1.275 1.445 c 0.149 0.668 -0.054 1.367 -0.538 1.851 l -8.233 8.233 l 0.548 4.332 l 4.332 0.548 l 8.233 -8.233 c 0.483 -0.485 1.186 -0.689 1.851 -0.538 c 0.669 0.149 1.214 0.63 1.445 1.275 c 1.935 5.384 0.58 11.469 -3.453 15.503 c -3.607 3.607 -8.756 5.079 -13.689 3.986 L 32.078 69.141 C 31.692 69.527 31.18 69.727 30.663 69.727 z M 24.82 59.535 c 1.553 2.147 3.454 4.053 5.598 5.61 l 9.838 -9.838 c 0.525 -0.525 1.297 -0.716 2.006 -0.496 c 3.857 1.196 8.023 0.17 10.869 -2.677 c 2.114 -2.115 3.22 -5.004 3.15 -7.921 l -6.263 6.263 c -0.437 0.437 -1.048 0.649 -1.665 0.57 l -6.844 -0.865 c -0.906 -0.114 -1.619 -0.828 -1.733 -1.733 l -0.865 -6.844 c -0.077 -0.613 0.133 -1.228 0.57 -1.665 l 6.263 -6.263 c -2.907 -0.082 -5.806 1.037 -7.921 3.15 c -2.847 2.847 -3.872 7.012 -2.677 10.869 c 0.22 0.71 0.029 1.482 -0.496 2.007 L 24.82 59.535 z" style="stroke: none; stroke-width: 1; stroke-dasharray: none; stroke-linecap: butt; stroke-linejoin: miter; stroke-miterlimit: 10; fill: rgb(94,111,211); fill-rule: nonzero; opacity: 1;" transform=" matrix(1 0 0 1 0 0) " stroke-linecap="round" />
</g>
</svg>