<svg xmlns="http://www.w3.org/2000/svg" xmlns:xlink="http://www.w3.org/1999/xlink" version="1.1" width="256" height="256" viewBox="0 0 256 256" xml:space="preserve">

<defs>
</defs>
<g style="stroke: none; stroke-width: 0; stroke-dasharray: none; stroke-linecap: butt; stroke-linejoin: miter; stroke-miterlimit: 10; fill: none; fill-rule: nonzero; opacity: 1;" transform="translate(1.4065934065934016 1.4065934065934016) scale(2.81 2.81)" >
	<path d="M 76.226 66.705 c -0.553 0 -1 -0.447 -1 -1 v -7.553 c -1.236 1.238 -2.945 2.005 -4.829 2.005 H 19.594 c -1.884 0 -3.591 -0.767 -4.828 -2.005 v 7.553 c 0 0.553 -0.448 1 -1 1 s -1 -0.447 -1 -1 V 53.328 c 0 -0.553 0.448 -1 1 -1 s 1 0.447 1 1 c 0 2.663 2.166 4.829 4.828 4.829 h 50.802 c 2.663 0 4.829 -2.166 4.829 -4.829 c 0 -0.553 0.447 -1 1 -1 s 1 0.447 1 1 v 12.377 C 77.226 66.258 76.778 66.705 76.226 66.705 z" style="stroke: none; stroke-width: 1; stroke-dasharray: none; stroke-linecap: butt; stroke-linejoin: miter; stroke-miterlimit: 10; fill: rgb(0,0,0); fill-rule: nonzero; opacity: 1;" transform=" matrix(1 0 0 1 0 0) " stroke-linecap="round" />
	<path d="M 70.396 90 H 19.594 c -3.765 0 -6.828 -3.063 -6.828 -6.828 v -6.548 c 0 -0.553 0.448 -1 1 -1 s 1 0.447 1 1 v 6.548 c 0 2.662 2.166 4.828 4.828 4.828 h 50.802 c 2.663 0 4.829 -2.166 4.829 -4.828 v -6.548 c 0 -0.553 0.447 -1 1 -1 s 1 0.447 1 1 v 6.548 C 77.226 86.937 74.162 90 70.396 90 z" style="stroke: none; stroke-width: 1; stroke-dasharray: none; stroke-linecap: butt; stroke-linejoin: miter; stroke-miterlimit: 10; fill: rgb(0,0,0); fill-rule: nonzero; opacity: 1;" transform=" matrix(1 0 0 1 0 0) " stroke-linecap="round" />
	<path d="M 42.819 30.056 c -0.156 0 -0.314 -0.036 -0.461 -0.113 c -1.315 -0.686 -2.592 -0.685 -3.906 0 c -0.489 0.256 -1.094 0.065 -1.349 -0.424 c -0.255 -0.49 -0.065 -1.094 0.424 -1.349 c 1.908 -0.996 3.845 -0.997 5.755 0 c 0.49 0.255 0.68 0.859 0.424 1.349 C 43.528 29.86 43.18 30.056 42.819 30.056 z" style="stroke: none; stroke-width: 1; stroke-dasharray: none; stroke-linecap: butt; stroke-linejoin: miter; stroke-miterlimit: 10; fill: rgb(0,0,0); fill-rule: nonzero; opacity: 1;" transform=" matrix(1 0 0 1 0 0) " stroke-linecap="round" />
	<path d="M 52.001 30.056 c -0.155 0 -0.313 -0.036 -0.462 -0.113 c -1.313 -0.686 -2.593 -0.685 -3.905 0 c -0.493 0.257 -1.094 0.064 -1.35 -0.424 c -0.255 -0.49 -0.065 -1.094 0.424 -1.349 c 1.91 -0.995 3.847 -0.996 5.757 0 c 0.489 0.255 0.679 0.859 0.424 1.349 C 52.71 29.86 52.362 30.056 52.001 30.056 z" style="stroke: none; stroke-width: 1; stroke-dasharray: none; stroke-linecap: butt; stroke-linejoin: miter; stroke-miterlimit: 10; fill: rgb(0,0,0); fill-rule: nonzero; opacity: 1;" transform=" matrix(1 0 0 1 0 0) " stroke-linecap="round" />
	<path d="M 44.986 41.3 c -0.003 0 -0.006 0 -0.009 0 c -2.166 -0.004 -4.292 -1.367 -6.321 -4.051 c -0.229 -0.303 -0.267 -0.709 -0.097 -1.049 c 0.169 -0.339 0.516 -0.554 0.895 -0.554 h 11.083 c 0.38 0 0.728 0.215 0.896 0.556 c 0.169 0.341 0.131 0.748 -0.1 1.05 C 49.289 39.938 47.153 41.3 44.986 41.3 z M 41.654 37.646 c 1.141 1.097 2.255 1.652 3.327 1.654 c 0.001 0 0.003 0 0.005 0 c 1.074 0 2.193 -0.555 3.343 -1.654 H 41.654 z" style="stroke: none; stroke-width: 1; stroke-dasharray: none; stroke-linecap: butt; stroke-linejoin: miter; stroke-miterlimit: 10; fill: rgb(0,0,0); fill-rule: nonzero; opacity: 1;" transform=" matrix(1 0 0 1 0 0) " stroke-linecap="round" />
	<path d="M 32.93 36.918 c -0.092 0 -0.187 -0.013 -0.28 -0.04 c -2.835 -0.825 -4.816 -3.465 -4.816 -6.42 V 27.82 c 0 -1.431 1.165 -2.596 2.596 -2.596 H 32 c 0.552 0 1 0.448 1 1 s -0.448 1 -1 1 h -1.569 c -0.329 0 -0.596 0.267 -0.596 0.596 v 2.638 c 0 2.072 1.388 3.922 3.375 4.5 c 0.53 0.154 0.835 0.709 0.681 1.24 C 33.763 36.634 33.363 36.918 32.93 36.918 z" style="stroke: none; stroke-width: 1; stroke-dasharray: none; stroke-linecap: butt; stroke-linejoin: miter; stroke-miterlimit: 10; fill: rgb(0,0,0); fill-rule: nonzero; opacity: 1;" transform=" matrix(1 0 0 1 0 0) " stroke-linecap="round" />
	<path d="M 57.061 36.917 c -0.434 0 -0.833 -0.284 -0.96 -0.721 c -0.154 -0.53 0.15 -1.085 0.681 -1.24 c 1.987 -0.578 3.375 -2.429 3.375 -4.501 V 27.82 c 0 -0.329 -0.268 -0.596 -0.596 -0.596 h -1.509 c -0.553 0 -1 -0.448 -1 -1 s 0.447 -1 1 -1 h 1.509 c 1.432 0 2.596 1.165 2.596 2.596 v 2.636 c 0 2.957 -1.98 5.597 -4.816 6.422 C 57.246 36.904 57.152 36.917 57.061 36.917 z" style="stroke: none; stroke-width: 1; stroke-dasharray: none; stroke-linecap: butt; stroke-linejoin: miter; stroke-miterlimit: 10; fill: rgb(0,0,0); fill-rule: nonzero; opacity: 1;" transform=" matrix(1 0 0 1 0 0) " stroke-linecap="round" />
	<path d="M 20.58 60.157 c -0.552 0 -1 -0.447 -1 -1 v -1.399 c 0 -3.743 2.872 -6.944 6.829 -7.611 L 33 49.036 c 2.069 -0.349 3.571 -1.98 3.571 -3.881 l 0.042 -1.731 c 0.013 -0.552 0.486 -0.994 1.023 -0.976 c 0.552 0.013 0.989 0.471 0.976 1.023 l -0.041 1.708 c 0 2.856 -2.203 5.318 -5.238 5.83 l -6.591 1.11 c -2.99 0.504 -5.161 2.875 -5.161 5.639 v 1.399 C 21.58 59.71 21.132 60.157 20.58 60.157 z" style="stroke: none; stroke-width: 1; stroke-dasharray: none; stroke-linecap: butt; stroke-linejoin: miter; stroke-miterlimit: 10; fill: rgb(0,0,0); fill-rule: nonzero; opacity: 1;" transform=" matrix(1 0 0 1 0 0) " stroke-linecap="round" />
	<path d="M 69.411 60.157 c -0.553 0 -1 -0.447 -1 -1 v -1.399 c 0 -2.764 -2.17 -5.135 -5.16 -5.639 l -6.592 -1.11 c -3.035 -0.512 -5.238 -2.974 -5.238 -5.854 l -0.039 -1.685 c -0.013 -0.552 0.425 -1.01 0.978 -1.022 c 0.008 0 0.016 0 0.022 0 c 0.542 0 0.987 0.433 1 0.977 l 0.039 1.708 c 0 1.924 1.502 3.556 3.57 3.904 l 6.592 1.11 c 3.956 0.667 6.828 3.868 6.828 7.611 v 1.399 C 70.411 59.71 69.964 60.157 69.411 60.157 z" style="stroke: none; stroke-width: 1; stroke-dasharray: none; stroke-linecap: butt; stroke-linejoin: miter; stroke-miterlimit: 10; fill: rgb(0,0,0); fill-rule: nonzero; opacity: 1;" transform=" matrix(1 0 0 1 0 0) " stroke-linecap="round" />
	<path d="M 45.004 56.019 c -3.81 0 -7.623 -1.866 -11.412 -5.6 c -0.394 -0.387 -0.398 -1.021 -0.011 -1.414 s 1.021 -0.398 1.414 -0.01 c 6.739 6.638 13.281 6.639 19.999 0.001 c 0.394 -0.39 1.026 -0.384 1.414 0.008 c 0.389 0.393 0.385 1.026 -0.008 1.414 C 52.622 54.151 48.814 56.019 45.004 56.019 z" style="stroke: none; stroke-width: 1; stroke-dasharray: none; stroke-linecap: butt; stroke-linejoin: miter; stroke-miterlimit: 10; fill: rgb(0,0,0); fill-rule: nonzero; opacity: 1;" transform=" matrix(1 0 0 1 0 0) " stroke-linecap="round" />
	<path d="M 59.832 24.306 H 30.159 c -1.1 0 -1.994 -0.895 -1.994 -1.994 v -2.004 c 0 -1.1 0.895 -1.994 1.994 -1.994 h 29.673 c 1.1 0 1.994 0.895 1.994 1.994 v 2.004 C 61.826 23.412 60.932 24.306 59.832 24.306 z M 59.832 22.306 v 1 V 22.306 C 59.832 22.306 59.832 22.306 59.832 22.306 z M 59.826 20.308 l -29.667 0.006 l 0.006 1.999 l 29.664 -0.006 L 59.826 20.308 z" style="stroke: none; stroke-width: 1; stroke-dasharray: none; stroke-linecap: butt; stroke-linejoin: miter; stroke-miterlimit: 10; fill: rgb(0,0,0); fill-rule: nonzero; opacity: 1;" transform=" matrix(1 0 0 1 0 0) " stroke-linecap="round" />
	<path d="M 58.737 20.313 H 31.254 c -0.552 0 -1 -0.448 -1 -1 v -3.048 c 0 -5.899 3.572 -11.263 8.96 -13.563 V 2.486 C 39.214 1.115 40.329 0 41.699 0 h 6.593 c 1.37 0 2.485 1.115 2.485 2.486 v 0.217 c 5.388 2.3 8.96 7.664 8.96 13.563 v 3.048 C 59.737 19.866 59.29 20.313 58.737 20.313 z M 32.254 18.313 h 25.483 v -2.048 c 0 -5.302 -3.339 -10.103 -8.308 -11.948 c -0.393 -0.146 -0.652 -0.52 -0.652 -0.938 V 2.486 C 48.777 2.218 48.56 2 48.292 2 h -6.593 c -0.268 0 -0.485 0.218 -0.485 0.486 V 3.38 c 0 0.418 -0.26 0.792 -0.652 0.938 c -4.969 1.844 -8.308 6.646 -8.308 11.948 V 18.313 z" style="stroke: none; stroke-width: 1; stroke-dasharray: none; stroke-linecap: butt; stroke-linejoin: miter; stroke-miterlimit: 10; fill: rgb(0,0,0); fill-rule: nonzero; opacity: 1;" transform=" matrix(1 0 0 1 0 0) " stroke-linecap="round" />
	<path d="M 40.214 9.745 c -0.552 0 -1 -0.448 -1 -1 V 3.38 c 0 -0.552 0.448 -1 1 -1 s 1 0.448 1 1 v 5.365 C 41.214 9.297 40.766 9.745 40.214 9.745 z" style="stroke: none; stroke-width: 1; stroke-dasharray: none; stroke-linecap: butt; stroke-linejoin: miter; stroke-miterlimit: 10; fill: rgb(0,0,0); fill-rule: nonzero; opacity: 1;" transform=" matrix(1 0 0 1 0 0) " stroke-linecap="round" />
	<path d="M 49.777 9.745 c -0.553 0 -1 -0.448 -1 -1 V 3.38 c 0 -0.552 0.447 -1 1 -1 s 1 0.448 1 1 v 5.365 C 50.777 9.297 50.33 9.745 49.777 9.745 z" style="stroke: none; stroke-width: 1; stroke-dasharray: none; stroke-linecap: butt; stroke-linejoin: miter; stroke-miterlimit: 10; fill: rgb(0,0,0); fill-rule: nonzero; opacity: 1;" transform=" matrix(1 0 0 1 0 0) " stroke-linecap="round" />
	<path d="M 44.996 13.273 c -0.552 0 -1 -0.448 -1 -1 V 1 c 0 -0.552 0.448 -1 1 -1 s 1 0.448 1 1 v 11.273 C 45.996 12.825 45.548 13.273 44.996 13.273 z" style="stroke: none; stroke-width: 1; stroke-dasharray: none; stroke-linecap: butt; stroke-linejoin: miter; stroke-miterlimit: 10; fill: rgb(0,0,0); fill-rule: nonzero; opacity: 1;" transform=" matrix(1 0 0 1 0 0) " stroke-linecap="round" />
	<path d="M 44.996 47.912 c -0.882 0 -1.75 -0.152 -2.58 -0.452 c -6.139 -2.218 -10.458 -7.855 -11.002 -14.36 l -0.491 -9.744 c -0.014 -0.273 0.085 -0.541 0.274 -0.739 c 0.189 -0.199 0.451 -0.311 0.725 -0.311 h 26.283 c 0.276 0 0.54 0.114 0.729 0.316 s 0.286 0.473 0.269 0.749 l -0.625 9.71 c -0.545 6.524 -4.864 12.161 -11.004 14.379 C 46.746 47.76 45.878 47.912 44.996 47.912 z M 32.974 24.306 l 0.436 8.66 c 0.477 5.695 4.28 10.659 9.687 12.613 c 1.224 0.443 2.58 0.442 3.797 0 c 5.408 -1.953 9.211 -6.917 9.69 -12.646 l 0.555 -8.627 H 32.974 z" style="stroke: none; stroke-width: 1; stroke-dasharray: none; stroke-linecap: butt; stroke-linejoin: miter; stroke-miterlimit: 10; fill: rgb(0,0,0); fill-rule: nonzero; opacity: 1;" transform=" matrix(1 0 0 1 0 0) " stroke-linecap="round" />
	<path d="M 60.392 60.108 h -4.043 c -0.553 0 -1 -0.447 -1 -1 v -9.207 c 0 -0.31 0.143 -0.601 0.388 -0.79 c 0.243 -0.189 0.561 -0.253 0.862 -0.179 l 0.174 0.048 c 0.072 0.021 0.145 0.043 0.222 0.057 l 3.563 0.6 c 0.481 0.081 0.834 0.498 0.834 0.986 v 8.485 C 61.392 59.661 60.944 60.108 60.392 60.108 z M 57.349 58.108 h 2.043 v -6.64 l -2.043 -0.344 V 58.108 z" style="stroke: none; stroke-width: 1; stroke-dasharray: none; stroke-linecap: butt; stroke-linejoin: miter; stroke-miterlimit: 10; fill: rgb(0,0,0); fill-rule: nonzero; opacity: 1;" transform=" matrix(1 0 0 1 0 0) " stroke-linecap="round" />
	<path d="M 33.643 60.108 H 29.6 c -0.552 0 -1 -0.447 -1 -1 v -8.485 c 0 -0.488 0.353 -0.905 0.834 -0.986 L 33 49.036 c 0.075 -0.013 0.148 -0.035 0.223 -0.057 l 0.17 -0.046 c 0.299 -0.079 0.617 -0.013 0.862 0.177 c 0.245 0.189 0.388 0.481 0.388 0.791 v 9.207 C 34.643 59.661 34.195 60.108 33.643 60.108 z M 30.6 58.108 h 2.043 v -6.983 L 30.6 51.469 V 58.108 z" style="stroke: none; stroke-width: 1; stroke-dasharray: none; stroke-linecap: butt; stroke-linejoin: miter; stroke-miterlimit: 10; fill: rgb(0,0,0); fill-rule: nonzero; opacity: 1;" transform=" matrix(1 0 0 1 0 0) " stroke-linecap="round" />
	<path d="M 14.334 77.624 h -0.568 c -0.372 0 -0.713 -0.206 -0.886 -0.536 c -2.058 -3.931 -2.058 -7.916 0 -11.847 c 0.172 -0.33 0.514 -0.536 0.886 -0.536 h 0.568 c 2.199 0 3.988 1.789 3.988 3.987 v 4.944 C 18.322 75.835 16.533 77.624 14.334 77.624 z M 14.386 66.706 c -1.405 2.994 -1.405 5.923 0 8.917 c 1.072 -0.027 1.936 -0.908 1.936 -1.986 v -4.944 C 16.322 67.614 15.458 66.733 14.386 66.706 z" style="stroke: none; stroke-width: 1; stroke-dasharray: none; stroke-linecap: butt; stroke-linejoin: miter; stroke-miterlimit: 10; fill: rgb(0,0,0); fill-rule: nonzero; opacity: 1;" transform=" matrix(1 0 0 1 0 0) " stroke-linecap="round" />
	<path d="M 76.234 77.624 h -0.568 c -2.198 0 -3.987 -1.789 -3.987 -3.987 v -4.944 c 0 -2.198 1.789 -3.987 3.987 -3.987 h 0.568 c 0.372 0 0.714 0.207 0.886 0.536 c 2.058 3.931 2.058 7.916 0 11.847 C 76.948 77.417 76.606 77.624 76.234 77.624 z M 75.615 66.706 c -1.072 0.027 -1.937 0.907 -1.937 1.986 v 4.944 c 0 1.079 0.864 1.959 1.937 1.986 C 77.02 72.629 77.02 69.7 75.615 66.706 z" style="stroke: none; stroke-width: 1; stroke-dasharray: none; stroke-linecap: butt; stroke-linejoin: miter; stroke-miterlimit: 10; fill: rgb(0,0,0); fill-rule: nonzero; opacity: 1;" transform=" matrix(1 0 0 1 0 0) " stroke-linecap="round" />
</g>
</svg>