<svg xmlns="http://www.w3.org/2000/svg" xmlns:xlink="http://www.w3.org/1999/xlink" version="1.1" width="256" height="256" viewBox="0 0 256 256" xml:space="preserve">

<defs>
</defs>
<g style="stroke: none; stroke-width: 0; stroke-dasharray: none; stroke-linecap: butt; stroke-linejoin: miter; stroke-miterlimit: 10; fill: rgb(255,255,255); fill-rule: nonzero; opacity: 1;" transform="translate(0 0) scale(2.81 2.81)" >
	<path d="M 71.326 90 H 18.674 C 8.361 90 0 81.639 0 71.326 V 18.674 C 0 8.361 8.361 0 18.674 0 h 52.652 C 81.639 0 90 8.361 90 18.674 v 52.652 C 90 81.639 81.639 90 71.326 90 z" style="stroke: none; stroke-width: 1; stroke-dasharray: none; stroke-linecap: butt; stroke-linejoin: miter; stroke-miterlimit: 10; fill: rgb(255,255,255); fill-rule: nonzero; opacity: 1;" transform=" matrix(1 0 0 1 0 0) " stroke-linecap="round" />
</g>
<g style="stroke: none; stroke-width: 0; stroke-dasharray: none; stroke-linecap: butt; stroke-linejoin: miter; stroke-miterlimit: 10; fill: none; fill-rule: nonzero; opacity: 1;" transform="translate(46.17984832069338 46.17984832069338) scale(1.82 1.82)" >
	<path d="M 53.828 66.464 L 53.828 66.464 c -3.72 0.219 -5.847 -4.17 -3.371 -6.955 l 0 0 c 0.351 -0.395 0.316 -1.001 -0.079 -1.352 l -3.523 -3.132 c -0.395 -0.351 -1.001 -0.316 -1.352 0.079 l 0 0 c -2.476 2.785 -7.083 1.186 -7.301 -2.534 l 0 0 c -0.031 -0.528 -0.484 -0.931 -1.012 -0.9 l -4.707 0.276 c -0.528 0.031 -0.931 0.484 -0.9 1.012 c 0.219 3.72 -4.17 5.847 -6.955 3.371 c -0.395 -0.351 -1.001 -0.316 -1.352 0.079 l -3.133 3.524 c -0.351 0.395 -0.316 1.001 0.079 1.352 c 2.785 2.476 1.186 7.083 -2.534 7.302 c -0.528 0.031 -0.931 0.484 -0.9 1.012 l 0.276 4.706 c 0.031 0.528 0.484 0.931 1.012 0.9 l 0 0 c 3.72 -0.219 5.847 4.17 3.371 6.955 l 0 0 c -0.351 0.395 -0.316 1.001 0.079 1.352 l 3.523 3.132 c 0.395 0.351 1.001 0.316 1.352 -0.079 l 0 0 c 2.476 -2.785 7.083 -1.186 7.301 2.534 l 0 0 c 0.031 0.528 0.484 0.931 1.012 0.9 l 4.706 -0.276 c 0.528 -0.031 0.931 -0.484 0.9 -1.012 l 0 0 c -0.219 -3.72 4.17 -5.847 6.955 -3.371 l 0 0 c 0.395 0.351 1.001 0.316 1.352 -0.079 l 3.132 -3.523 c 0.351 -0.395 0.316 -1.001 -0.079 -1.352 l 0 0 c -2.785 -2.476 -1.186 -7.083 2.534 -7.301 c 0.528 -0.031 0.931 -0.484 0.9 -1.012 l -0.276 -4.706 C 54.809 66.836 54.356 66.433 53.828 66.464 z M 39.561 78.279 c -4.111 1.993 -9.06 0.276 -11.052 -3.836 s -0.276 -9.06 3.836 -11.052 c 4.111 -1.993 9.06 -0.276 11.052 3.836 C 45.389 71.337 43.672 76.286 39.561 78.279 z" style="stroke: none; stroke-width: 1; stroke-dasharray: none; stroke-linecap: butt; stroke-linejoin: miter; stroke-miterlimit: 10; fill: rgb(0,0,0); fill-rule: nonzero; opacity: 1;" transform=" matrix(1 0 0 1 0 0) " stroke-linecap="round" />
	<path d="M 77.04 59.857 c -3.03 -0.903 -3.455 -5.019 -0.673 -6.522 c 0.395 -0.213 0.542 -0.706 0.328 -1.101 l -1.902 -3.518 c -0.213 -0.395 -0.706 -0.542 -1.101 -0.328 c -2.781 1.503 -5.992 -1.106 -5.088 -4.135 c 0.128 -0.43 -0.117 -0.883 -0.546 -1.011 l -3.833 -1.143 c -0.43 -0.128 -0.883 0.117 -1.011 0.546 c -0.903 3.03 -5.019 3.455 -6.522 0.673 c -0.213 -0.395 -0.706 -0.542 -1.101 -0.328 l -3.519 1.902 c -0.395 0.213 -0.542 0.706 -0.328 1.101 c 1.503 2.781 -1.106 5.992 -4.136 5.088 c -0.43 -0.128 -0.883 0.116 -1.011 0.546 l -0.202 0.678 c 0.784 0.04 1.527 0.325 2.122 0.855 l 3.521 3.13 c 0.691 0.614 1.102 1.461 1.155 2.384 c 0.054 0.922 -0.256 1.81 -0.87 2.499 c -0.673 0.757 -0.402 1.546 -0.255 1.851 s 0.597 1.025 1.613 0.945 h 0.003 c 1.913 -0.113 3.538 1.348 3.651 3.249 l 0.275 4.707 c 0.039 0.659 -0.12 1.281 -0.411 1.824 l 1.615 0.482 c 0.43 0.128 0.883 -0.116 1.011 -0.546 c 0.903 -3.03 5.019 -3.455 6.522 -0.673 c 0.213 0.395 0.706 0.542 1.101 0.328 l 3.518 -1.902 c 0.395 -0.213 0.542 -0.706 0.328 -1.101 c -1.503 -2.781 1.106 -5.992 4.136 -5.088 c 0.43 0.128 0.883 -0.116 1.011 -0.546 l 1.143 -3.833 C 77.715 60.438 77.47 59.985 77.04 59.857 z M 62.241 65.145 c -3.856 0.398 -7.304 -2.405 -7.702 -6.26 c -0.398 -3.856 2.405 -7.304 6.26 -7.702 s 7.304 2.405 7.702 6.26 S 66.096 64.747 62.241 65.145 z" style="stroke: none; stroke-width: 1; stroke-dasharray: none; stroke-linecap: butt; stroke-linejoin: miter; stroke-miterlimit: 10; fill: rgb(0,0,0); fill-rule: nonzero; opacity: 1;" transform=" matrix(1 0 0 1 0 0) " stroke-linecap="round" />
	<path d="M 57.912 29.499 V 18.488 L 32.088 29.493 V 18.488 L 6.25 29.499 v 38.275 c 0 1.845 1.495 3.34 3.34 3.34 h 4.783 l -0.08 -1.369 c -0.055 -0.921 0.254 -1.81 0.869 -2.501 c 0.614 -0.69 1.461 -1.101 2.384 -1.153 c 1.009 -0.06 1.376 -0.809 1.487 -1.128 s 0.287 -1.135 -0.471 -1.81 c -1.425 -1.268 -1.553 -3.457 -0.287 -4.882 l 3.132 -3.523 c 1.27 -1.424 3.46 -1.552 4.883 -0.285 c 0.757 0.672 1.546 0.401 1.852 0.255 c 0.304 -0.147 1.005 -0.6 0.945 -1.612 c -0.111 -1.903 1.346 -3.542 3.248 -3.655 l 4.709 -0.275 c 1.893 -0.109 3.541 1.345 3.654 3.248 c 0.06 1.014 0.809 1.381 1.128 1.492 c 0.279 0.097 0.936 0.244 1.549 -0.227 l 0.828 -2.775 c 0.524 -1.75 2.375 -2.744 4.119 -2.229 c 0.593 0.179 0.951 -0.14 1.115 -0.343 c 0.165 -0.203 0.398 -0.623 0.108 -1.159 c -0.867 -1.609 -0.266 -3.622 1.339 -4.49 l 3.52 -1.902 c 0.776 -0.42 1.672 -0.514 2.521 -0.26 c 0.849 0.253 1.547 0.821 1.968 1.601 c 0.289 0.536 0.776 0.568 1.029 0.543 c 0.261 -0.027 0.723 -0.159 0.897 -0.744 c 0.252 -0.847 0.82 -1.546 1.6 -1.967 c 0.777 -0.42 1.674 -0.513 2.52 -0.261 l 3.835 1.144 c 1.75 0.523 2.749 2.371 2.229 4.12 c -0.175 0.585 0.139 0.949 0.342 1.114 c 0.204 0.165 0.624 0.397 1.16 0.108 c 0.78 -0.419 1.674 -0.512 2.521 -0.261 c 0.849 0.253 1.548 0.821 1.969 1.601 l 1.901 3.517 c 0.867 1.607 0.268 3.62 -1.336 4.489 c -0.539 0.291 -0.574 0.771 -0.547 1.03 c 0.026 0.261 0.159 0.723 0.743 0.897 l 0.004 0.001 c 1.749 0.524 2.746 2.374 2.222 4.123 l -1.143 3.831 c -0.521 1.748 -2.368 2.744 -4.118 2.228 c -0.587 -0.175 -0.951 0.139 -1.115 0.343 c -0.165 0.203 -0.399 0.624 -0.109 1.16 c 0.339 0.624 0.448 1.31 0.369 1.967 h 6.546 c 1.845 0 3.34 -1.496 3.34 -3.34 V 18.488 L 57.912 29.499 z" style="stroke: none; stroke-width: 1; stroke-dasharray: none; stroke-linecap: butt; stroke-linejoin: miter; stroke-miterlimit: 10; fill: rgb(0,0,0); fill-rule: nonzero; opacity: 1;" transform=" matrix(1 0 0 1 0 0) " stroke-linecap="round" />
	<polygon points="78.56,17.98 77.86,0 64.84,0 63.9,24.23 " style="stroke: none; stroke-width: 1; stroke-dasharray: none; stroke-linecap: butt; stroke-linejoin: miter; stroke-miterlimit: 10; fill: rgb(0,0,0); fill-rule: nonzero; opacity: 1;" transform="  matrix(1 0 0 1 0 0) "/>
</g>
</svg>