<svg xmlns="http://www.w3.org/2000/svg" xmlns:xlink="http://www.w3.org/1999/xlink" version="1.1" width="256" height="256" viewBox="0 0 256 256" xml:space="preserve">

<defs>
</defs>
<g style="stroke: none; stroke-width: 0; stroke-dasharray: none; stroke-linecap: butt; stroke-linejoin: miter; stroke-miterlimit: 10; fill: none; fill-rule: nonzero; opacity: 1;" transform="translate(0 0) scale(2.81 2.81)" >
	<path d="M 69.681 90 H 20.319 C 9.115 90 0 80.885 0 69.681 V 20.319 C 0 9.115 9.115 0 20.319 0 h 49.362 C 80.885 0 90 9.115 90 20.319 v 49.362 C 90 80.885 80.885 90 69.681 90 z M 20.319 5.625 c -8.102 0 -14.694 6.592 -14.694 14.694 v 49.362 c 0 8.102 6.592 14.694 14.694 14.694 h 49.362 c 8.102 0 14.694 -6.592 14.694 -14.694 V 20.319 c 0 -8.102 -6.592 -14.694 -14.694 -14.694 H 20.319 z" style="stroke: none; stroke-width: 1; stroke-dasharray: none; stroke-linecap: butt; stroke-linejoin: miter; stroke-miterlimit: 10; fill: rgb(0,0,0); fill-rule: nonzero; opacity: 1;" transform=" matrix(1 0 0 1 0 0) " stroke-linecap="round" />
</g>
<g style="stroke: none; stroke-width: 0; stroke-dasharray: none; stroke-linecap: butt; stroke-linejoin: miter; stroke-miterlimit: 10; fill: none; fill-rule: nonzero; opacity: 1;" transform="translate(46.17984832069338 46.17984832069338) scale(1.82 1.82)" >
	<path d="M 45 90 c -2.911 0 -5.82 -0.299 -8.647 -0.888 c -1.622 -0.337 -2.664 -1.926 -2.326 -3.548 s 1.928 -2.661 3.548 -2.325 C 40.001 83.744 42.5 84 45 84 c 12.921 0 24.756 -6.821 31.263 -17.908 c -3.618 -6.146 -9.063 -11.188 -15.479 -14.3 c -1.224 -0.595 -2.681 -0.57 -3.996 0.062 C 53.091 53.63 49.125 54.531 45 54.531 c -4.125 0 -8.09 -0.901 -11.788 -2.678 c -1.315 -0.633 -2.773 -0.656 -3.997 -0.062 c -6.414 3.111 -11.859 8.154 -15.477 14.299 c 0.894 1.521 1.902 2.98 3.006 4.354 c 1.038 1.291 0.833 3.18 -0.458 4.218 c -1.292 1.039 -3.179 0.834 -4.218 -0.458 c -1.679 -2.088 -3.165 -4.346 -4.417 -6.71 l -0.743 -1.404 l 0.743 -1.403 c 4.182 -7.899 10.911 -14.396 18.945 -18.294 c 2.883 -1.397 6.24 -1.377 9.215 0.052 c 2.879 1.384 5.971 2.086 9.188 2.086 c 3.218 0 6.31 -0.702 9.188 -2.086 c 2.975 -1.43 6.333 -1.449 9.215 -0.052 c 8.035 3.898 14.764 10.396 18.945 18.294 l 0.743 1.403 l -0.743 1.404 C 74.998 81.377 60.687 90 45 90 z" style="stroke: none; stroke-width: 1; stroke-dasharray: none; stroke-linecap: butt; stroke-linejoin: miter; stroke-miterlimit: 10; fill: rgb(94,111,211); fill-rule: nonzero; opacity: 1;" transform=" matrix(1 0 0 1 0 0) " stroke-linecap="round" />
	<path d="M 45 43.747 c -12.061 0 -21.873 -9.813 -21.873 -21.874 S 32.939 0 45 0 c 12.061 0 21.873 9.812 21.873 21.873 S 57.061 43.747 45 43.747 z M 45 6 c -8.752 0 -15.873 7.121 -15.873 15.873 c 0 8.753 7.121 15.874 15.873 15.874 c 8.752 0 15.873 -7.121 15.873 -15.874 C 60.873 13.121 53.752 6 45 6 z" style="stroke: none; stroke-width: 1; stroke-dasharray: none; stroke-linecap: butt; stroke-linejoin: miter; stroke-miterlimit: 10; fill: rgb(94,111,211); fill-rule: nonzero; opacity: 1;" transform=" matrix(1 0 0 1 0 0) " stroke-linecap="round" />
	<path d="M 40.179 73.207 l -7.646 -7.646 l 0 0 c -0.543 -0.543 -1.293 -0.879 -2.122 -0.879 s -1.579 0.336 -2.122 0.879 l 0 0 l -7.646 7.646 c -1.171 1.172 -1.171 3.071 0 4.242 c 1.171 1.172 3.071 1.172 4.243 0 l 2.524 -2.524 v 2.201 c 0 3.705 -3.015 6.72 -6.72 6.72 H 10.302 c -1.657 0 -3 1.343 -3 3 s 1.343 3 3 3 h 10.389 c 7.014 0 12.72 -5.706 12.72 -12.72 v -2.201 l 2.524 2.524 c 0.586 0.586 1.354 0.879 2.122 0.879 c 0.768 0 1.536 -0.293 2.121 -0.879 C 41.35 76.278 41.35 74.379 40.179 73.207 z" style="stroke: none; stroke-width: 1; stroke-dasharray: none; stroke-linecap: butt; stroke-linejoin: miter; stroke-miterlimit: 10; fill: rgb(94,111,211); fill-rule: nonzero; opacity: 1;" transform=" matrix(1 0 0 1 0 0) " stroke-linecap="round" />
</g>
</svg>