<svg data-v-fde0c5aa="" xmlns="http://www.w3.org/2000/svg" viewBox="0 0 300 300" class="iconAbove"><!----><defs data-v-fde0c5aa=""><!----></defs><rect data-v-fde0c5aa="" fill="#5E6FD3" x="0" y="0" width="300px" height="300px" class="logo-background-square"></rect><defs data-v-fde0c5aa=""><!----></defs><g data-v-fde0c5aa="" id="9b4df4a9-020f-41fe-bb3d-e22581aa0ab1" fill="#ffffff" transform="matrix(3.5871963500976562,0,0,3.5871963500976562,16.986755200524783,168.03973375698507)"><path d="M2.94 9.90L2.95 9.90L5.22 13.30L7.88 13.30L5.15 9.80C6.36 9.51 7.32 8.44 7.32 6.83C7.32 5.03 5.95 3.78 4.41 3.78L2.94 3.78L2.42 3.78L0.84 3.78L0.84 13.30L2.94 13.30ZM4.06 5.43C4.68 5.43 5.32 5.96 5.32 6.83C5.32 7.74 4.68 8.25 4.06 8.25L2.94 8.25L2.94 5.43ZM8.41 10.64C8.41 12.31 9.09 13.44 10.74 13.44C11.55 13.44 12.21 13.08 12.63 12.54L12.63 13.30L14.73 13.30L14.73 7.13L12.63 7.13L12.63 10.22C12.63 11.05 12.11 11.76 11.45 11.76C10.79 11.76 10.51 11.35 10.51 10.64L10.51 7.13L8.41 7.13ZM18.51 10.22C18.51 9.41 19.14 8.68 19.98 8.68C20.82 8.68 21.45 9.41 21.45 10.22C21.45 11.03 20.82 11.76 19.98 11.76C19.14 11.76 18.51 11.03 18.51 10.22ZM18.51 13.30L18.51 12.56C18.93 13.19 19.82 13.44 20.62 13.44C22.37 13.44 23.69 11.93 23.69 10.22C23.69 8.51 22.37 6.99 20.62 6.99C19.82 6.99 19.05 7.21 18.51 7.88L18.51 2.80L16.41 2.80L16.41 13.30ZM24.91 5.01C24.91 5.68 25.45 6.24 26.14 6.24C26.81 6.24 27.37 5.68 27.37 5.01C27.37 4.33 26.81 3.78 26.14 3.78C25.45 3.78 24.91 4.33 24.91 5.01ZM27.19 13.30L27.19 7.13L25.09 7.13L25.09 13.30ZM31.04 10.57L33.21 13.30L35.90 13.30L32.96 10.07L35.62 7.13L33.01 7.13L31.04 9.58L31.04 2.80L28.94 2.80L28.94 13.30L31.04 13.30ZM35.76 2.80L36.04 6.68L37.06 6.68L37.34 2.80ZM44.17 9.00C43.99 7.59 42.80 6.99 41.17 6.99C39.13 6.99 38.16 7.69 38.16 8.95C38.16 11.19 42.15 10.16 42.15 11.47C42.15 11.80 41.75 11.98 41.27 11.98C40.81 11.98 39.98 11.93 39.98 11.00L37.90 11.00C38.01 12.75 39.40 13.44 41.23 13.44C43.02 13.44 44.27 12.91 44.27 11.45C44.27 8.85 40.28 9.73 40.28 8.86C40.28 8.50 40.71 8.29 41.12 8.29C41.52 8.29 42.04 8.44 42.11 9.00ZM54.26 3.78L54.26 7.57L51.13 7.57L51.13 3.78L49.03 3.78L49.03 13.30L51.13 13.30L51.13 9.48L54.26 9.48L54.26 13.30L56.50 13.30L56.50 3.78ZM58.04 10.64C58.04 12.31 58.72 13.44 60.37 13.44C61.18 13.44 61.84 13.08 62.26 12.54L62.26 13.30L64.36 13.30L64.36 7.13L62.26 7.13L62.26 10.22C62.26 11.05 61.74 11.76 61.08 11.76C60.42 11.76 60.14 11.35 60.14 10.64L60.14 7.13L58.04 7.13ZM68.14 10.22C68.14 9.41 68.77 8.68 69.61 8.68C70.45 8.68 71.08 9.41 71.08 10.22C71.08 11.03 70.45 11.76 69.61 11.76C68.77 11.76 68.14 11.03 68.14 10.22ZM68.14 13.30L68.14 12.56C68.56 13.19 69.45 13.44 70.25 13.44C72.00 13.44 73.32 11.93 73.32 10.22C73.32 8.51 72.00 6.99 70.25 6.99C69.45 6.99 68.68 7.21 68.14 7.88L68.14 2.80L66.04 2.80L66.04 13.30Z"></path></g><defs data-v-fde0c5aa=""><!----></defs><g data-v-fde0c5aa="" id="dc032f97-a0e0-4485-8bfb-a4fb0b21fe5a" stroke="none" fill="#25347B" transform="matrix(2.5397768020629883,0,0,2.5397768020629883,109.36357011205266,81.27968718370607)"><path d="M17.572 23.933l4.106 7.095L32 13.189h-8.981V7.582L11.51.972 0 7.582v13.222l11.51 6.611 6.062-3.482zm10.96-8.744l-6.855 11.846-6.855-11.846h13.71z"></path></g><!----></svg>